<?xml version="1.0" encoding="UTF-8"?>
<svg xmlns="http://www.w3.org/2000/svg" xmlns:xlink="http://www.w3.org/1999/xlink" width="60px" height="60px" viewBox="0 0 60 60" version="1.1">
<g id="surface1">
<path style=" stroke:none;fill-rule:nonzero;fill:rgb(0.392157%,17.647059%,30.588236%);fill-opacity:1;" d="M 21.328125 0 C 21.855469 0.285156 22.179688 0.648438 22.449219 1.179688 C 22.503906 1.558594 22.453125 1.851562 22.382812 2.226562 C 22.527344 2.1875 22.671875 2.148438 22.820312 2.109375 C 29.566406 0.382812 36.757812 1.183594 43.007812 4.21875 C 43.09375 4.257812 43.175781 4.300781 43.265625 4.34375 C 46.105469 5.730469 48.582031 7.667969 50.859375 9.84375 C 50.945312 9.925781 51.035156 10.007812 51.125 10.09375 C 51.699219 10.648438 52.203125 11.25 52.695312 11.875 C 52.804688 12.011719 52.914062 12.148438 53.023438 12.285156 C 54.070312 13.589844 54.953125 14.953125 55.78125 16.40625 C 55.824219 16.480469 55.867188 16.554688 55.914062 16.632812 C 59.671875 23.066406 60.292969 31.222656 58.445312 38.339844 C 57.371094 42.292969 55.535156 46.097656 52.851562 49.21875 C 52.75 49.34375 52.648438 49.464844 52.542969 49.589844 C 51.296875 51.089844 49.945312 52.476562 48.398438 53.671875 C 48.289062 53.761719 48.179688 53.851562 48.066406 53.941406 C 46.449219 55.238281 44.648438 56.324219 42.769531 57.195312 C 42.53125 57.308594 42.296875 57.421875 42.0625 57.535156 C 40.109375 58.464844 38.023438 59.070312 35.910156 59.515625 C 35.804688 59.539062 35.699219 59.5625 35.589844 59.585938 C 33.742188 59.953125 31.921875 60.042969 30.042969 60.035156 C 29.929688 60.035156 29.816406 60.035156 29.699219 60.035156 C 28.019531 60.03125 26.378906 59.984375 24.726562 59.648438 C 24.609375 59.625 24.488281 59.601562 24.367188 59.578125 C 17.636719 58.230469 11.257812 54.574219 7.03125 49.101562 C 6.894531 48.933594 6.894531 48.933594 6.757812 48.761719 C 2.03125 42.824219 -0.0820312 35.019531 0.707031 27.496094 C 1.144531 23.75 2.21875 20.207031 3.984375 16.875 C 4.027344 16.792969 4.070312 16.707031 4.113281 16.625 C 5.164062 14.613281 6.472656 12.828125 7.96875 11.132812 C 8.058594 11.027344 8.152344 10.921875 8.246094 10.816406 C 9.210938 9.726562 10.226562 8.757812 11.367188 7.851562 C 11.457031 7.777344 11.542969 7.703125 11.636719 7.625 C 13.652344 5.949219 15.964844 4.671875 18.34375 3.585938 C 18.636719 3.449219 18.929688 3.3125 19.21875 3.164062 C 19.101562 2.992188 19.101562 2.992188 18.984375 2.820312 C 18.695312 2.3125 18.664062 1.863281 18.75 1.289062 C 19.183594 0.078125 20.148438 -0.179688 21.328125 0 Z M 21.328125 0 "/>
<path style=" stroke:none;fill-rule:nonzero;fill:rgb(34.509805%,98.431373%,70.980394%);fill-opacity:1;" d="M 22.894531 36.015625 C 23.941406 36.757812 24.691406 37.753906 24.960938 39.023438 C 24.972656 39.230469 24.980469 39.4375 24.984375 39.644531 C 24.984375 39.769531 24.988281 39.890625 24.988281 40.019531 C 24.996094 40.589844 25 41.160156 25.003906 41.730469 C 25.003906 42.027344 25.007812 42.328125 25.011719 42.625 C 25.019531 43.058594 25.019531 43.492188 25.023438 43.925781 C 25.023438 44.058594 25.027344 44.191406 25.03125 44.324219 C 25.027344 45.566406 24.671875 46.757812 23.875 47.730469 C 22.953125 48.640625 21.84375 49.109375 20.558594 49.144531 C 19.25 49.128906 18.292969 48.648438 17.359375 47.75 C 16.976562 47.304688 16.738281 46.832031 16.523438 46.289062 C 16.484375 46.199219 16.441406 46.113281 16.402344 46.019531 C 16.277344 45.667969 16.257812 45.394531 16.253906 45.019531 C 16.253906 44.886719 16.253906 44.75 16.25 44.613281 C 16.25 44.46875 16.25 44.324219 16.25 44.175781 C 16.25 44.023438 16.25 43.875 16.246094 43.71875 C 16.246094 43.402344 16.246094 43.085938 16.246094 42.769531 C 16.246094 42.367188 16.242188 41.960938 16.238281 41.558594 C 16.234375 41.171875 16.234375 40.785156 16.234375 40.394531 C 16.234375 40.253906 16.230469 40.109375 16.230469 39.960938 C 16.238281 38.597656 16.621094 37.546875 17.578125 36.5625 C 19.148438 35.230469 21.085938 35.003906 22.894531 36.015625 Z M 22.894531 36.015625 "/>
<path style=" stroke:none;fill-rule:nonzero;fill:rgb(34.509805%,98.431373%,70.980394%);fill-opacity:1;" d="M 34.839844 4.417969 C 35.621094 5.046875 36.195312 5.945312 36.445312 6.914062 C 36.496094 7.433594 36.496094 7.953125 36.496094 8.476562 C 36.496094 8.625 36.496094 8.777344 36.496094 8.929688 C 36.5 9.246094 36.5 9.558594 36.496094 9.875 C 36.496094 10.273438 36.5 10.675781 36.503906 11.074219 C 36.503906 11.460938 36.503906 11.847656 36.503906 12.234375 C 36.503906 12.375 36.507812 12.519531 36.507812 12.664062 C 36.496094 14.023438 36.109375 15.074219 35.15625 16.054688 C 34.195312 16.859375 33.128906 17.3125 31.867188 17.261719 C 30.621094 17.128906 29.671875 16.585938 28.796875 15.695312 C 27.605469 14.210938 27.683594 12.621094 27.703125 10.796875 C 27.707031 10.355469 27.707031 9.917969 27.703125 9.476562 C 27.703125 9.195312 27.707031 8.914062 27.707031 8.628906 C 27.707031 8.5 27.707031 8.371094 27.707031 8.238281 C 27.726562 6.8125 28.175781 5.71875 29.160156 4.699219 C 30.820312 3.140625 33 3.171875 34.839844 4.417969 Z M 34.839844 4.417969 "/>
<path style=" stroke:none;fill-rule:nonzero;fill:rgb(34.509805%,98.823529%,70.980394%);fill-opacity:1;" d="M 34.480469 20.316406 C 35.441406 20.992188 36.203125 21.917969 36.445312 23.085938 C 36.457031 23.300781 36.464844 23.515625 36.464844 23.730469 C 36.46875 23.925781 36.46875 23.925781 36.46875 24.125 C 36.472656 24.265625 36.472656 24.402344 36.472656 24.546875 C 36.472656 24.691406 36.476562 24.835938 36.476562 24.984375 C 36.476562 25.292969 36.480469 25.597656 36.480469 25.90625 C 36.480469 26.371094 36.488281 26.835938 36.492188 27.300781 C 36.492188 27.597656 36.496094 27.898438 36.496094 28.195312 C 36.496094 28.332031 36.5 28.472656 36.5 28.613281 C 36.496094 30.019531 36.09375 31.132812 35.140625 32.175781 C 34.230469 33.0625 33.136719 33.332031 31.90625 33.34375 C 30.808594 33.316406 29.957031 32.933594 29.121094 32.203125 C 28.003906 31.023438 27.738281 29.746094 27.734375 28.160156 C 27.734375 28.03125 27.734375 27.898438 27.730469 27.765625 C 27.730469 27.492188 27.730469 27.214844 27.730469 26.941406 C 27.730469 26.523438 27.726562 26.109375 27.722656 25.691406 C 27.703125 22.394531 27.703125 22.394531 28.820312 21.09375 C 30.40625 19.546875 32.523438 19.128906 34.480469 20.316406 Z M 34.480469 20.316406 "/>
<path style=" stroke:none;fill-rule:nonzero;fill:rgb(34.901962%,99.215686%,71.372551%);fill-opacity:1;" d="M 12.09375 20.367188 C 13.019531 21.089844 13.570312 21.847656 13.945312 22.96875 C 13.957031 23.191406 13.964844 23.414062 13.964844 23.636719 C 13.96875 23.839844 13.96875 23.839844 13.96875 24.050781 C 13.972656 24.199219 13.972656 24.347656 13.972656 24.5 C 13.972656 24.652344 13.976562 24.804688 13.976562 24.964844 C 13.976562 25.285156 13.980469 25.609375 13.980469 25.933594 C 13.980469 26.347656 13.984375 26.757812 13.988281 27.171875 C 13.992188 27.566406 13.996094 27.964844 13.996094 28.359375 C 13.996094 28.507812 14 28.652344 14 28.804688 C 14 30.128906 13.660156 31.066406 12.804688 32.078125 C 11.828125 33.050781 10.703125 33.335938 9.371094 33.339844 C 8.503906 33.320312 7.867188 33.066406 7.148438 32.578125 C 7.066406 32.523438 6.988281 32.472656 6.90625 32.417969 C 6.109375 31.8125 5.574219 30.859375 5.390625 29.882812 C 5.351562 29.359375 5.347656 28.839844 5.34375 28.3125 C 5.339844 28.164062 5.339844 28.011719 5.339844 27.855469 C 5.335938 27.535156 5.335938 27.214844 5.335938 26.894531 C 5.332031 26.488281 5.328125 26.082031 5.320312 25.675781 C 5.316406 25.28125 5.316406 24.890625 5.3125 24.5 C 5.3125 24.355469 5.308594 24.210938 5.304688 24.0625 C 5.3125 22.777344 5.734375 21.832031 6.5625 20.859375 C 8.269531 19.4375 10.15625 19.265625 12.09375 20.367188 Z M 12.09375 20.367188 "/>
<path style=" stroke:none;fill-rule:nonzero;fill:rgb(34.509805%,98.431373%,70.980394%);fill-opacity:1;" d="M 42.773438 4.101562 C 43.121094 4.246094 43.445312 4.414062 43.777344 4.59375 C 43.921875 4.667969 43.921875 4.667969 44.066406 4.746094 C 45.246094 5.386719 46.367188 6.132812 47.460938 6.914062 C 47.539062 6.957031 47.617188 7 47.699219 7.046875 C 48.089844 7.285156 48.351562 7.460938 48.484375 7.910156 C 48.515625 8.273438 48.519531 8.628906 48.511719 8.996094 C 48.511719 9.128906 48.511719 9.261719 48.511719 9.398438 C 48.511719 9.683594 48.507812 9.964844 48.5 10.246094 C 48.492188 10.675781 48.492188 11.101562 48.496094 11.53125 C 48.492188 11.804688 48.492188 12.082031 48.488281 12.355469 C 48.488281 12.484375 48.488281 12.609375 48.488281 12.738281 C 48.457031 14.078125 47.988281 15.183594 47.0625 16.148438 C 45.984375 17.058594 44.851562 17.316406 43.476562 17.226562 C 42.308594 17.027344 41.363281 16.410156 40.613281 15.5 C 40.035156 14.664062 39.71875 13.773438 39.707031 12.753906 C 39.703125 12.636719 39.703125 12.519531 39.703125 12.398438 C 39.699219 12.273438 39.699219 12.148438 39.699219 12.019531 C 39.699219 11.886719 39.695312 11.757812 39.695312 11.621094 C 39.695312 11.34375 39.691406 11.066406 39.691406 10.789062 C 39.691406 10.507812 39.6875 10.226562 39.683594 9.941406 C 39.679688 9.535156 39.679688 9.125 39.675781 8.714844 C 39.675781 8.589844 39.671875 8.46875 39.671875 8.339844 C 39.675781 7.050781 40 5.871094 40.898438 4.921875 C 41.960938 3.90625 41.960938 3.90625 42.773438 4.101562 Z M 42.773438 4.101562 "/>
<path style=" stroke:none;fill-rule:nonzero;fill:rgb(34.509805%,98.823529%,70.980394%);fill-opacity:1;" d="M 34.058594 51.882812 C 35.195312 52.488281 35.925781 53.367188 36.371094 54.578125 C 36.496094 55.03125 36.488281 55.46875 36.480469 55.933594 C 36.480469 56.035156 36.480469 56.136719 36.476562 56.238281 C 36.476562 56.554688 36.472656 56.871094 36.46875 57.1875 C 36.464844 57.402344 36.464844 57.621094 36.460938 57.835938 C 36.457031 58.363281 36.453125 58.886719 36.445312 59.414062 C 36.019531 59.492188 35.597656 59.566406 35.171875 59.640625 C 34.992188 59.671875 34.992188 59.671875 34.8125 59.707031 C 34.691406 59.726562 34.574219 59.746094 34.453125 59.769531 C 34.347656 59.789062 34.242188 59.808594 34.128906 59.828125 C 33.222656 59.960938 32.328125 60.015625 31.414062 60.011719 C 31.308594 60.011719 31.203125 60.011719 31.09375 60.011719 C 30.765625 60.011719 30.433594 60.007812 30.101562 60.007812 C 29.875 60.007812 29.648438 60.007812 29.425781 60.003906 C 28.875 60.003906 28.324219 60.003906 27.773438 60 C 27.761719 59.324219 27.753906 58.644531 27.746094 57.96875 C 27.746094 57.738281 27.742188 57.507812 27.738281 57.277344 C 27.707031 55.582031 27.742188 54.164062 28.945312 52.851562 C 30.289062 51.488281 32.292969 51.113281 34.058594 51.882812 Z M 34.058594 51.882812 "/>
<path style=" stroke:none;fill-rule:nonzero;fill:rgb(3.529412%,69.411767%,60.784316%);fill-opacity:1;" d="M 9.585938 35.816406 C 9.726562 35.8125 9.863281 35.808594 10.003906 35.808594 C 11.292969 35.800781 11.292969 35.800781 11.835938 36.328125 C 12.03125 36.65625 12.101562 36.898438 12.101562 37.28125 C 12.101562 37.375 12.105469 37.46875 12.105469 37.570312 C 12.105469 37.671875 12.105469 37.777344 12.105469 37.882812 C 12.105469 37.992188 12.105469 38.101562 12.105469 38.214844 C 12.109375 38.578125 12.109375 38.941406 12.109375 39.304688 C 12.109375 39.558594 12.109375 39.808594 12.113281 40.0625 C 12.113281 40.589844 12.113281 41.121094 12.113281 41.648438 C 12.113281 42.328125 12.117188 43.007812 12.121094 43.683594 C 12.125 44.207031 12.125 44.726562 12.125 45.25 C 12.125 45.5 12.125 45.75 12.128906 46 C 12.128906 46.347656 12.128906 46.699219 12.128906 47.046875 C 12.128906 47.152344 12.128906 47.253906 12.132812 47.359375 C 12.125 47.996094 12.027344 48.359375 11.601562 48.867188 C 11.226562 49.140625 10.886719 49.164062 10.429688 49.101562 C 10.027344 48.859375 9.761719 48.617188 9.609375 48.164062 C 9.597656 47.84375 9.59375 47.527344 9.597656 47.210938 C 9.597656 47.113281 9.597656 47.015625 9.597656 46.914062 C 9.597656 46.59375 9.597656 46.273438 9.597656 45.949219 C 9.597656 45.726562 9.597656 45.503906 9.597656 45.28125 C 9.597656 44.695312 9.601562 44.109375 9.601562 43.523438 C 9.601562 42.925781 9.601562 42.324219 9.605469 41.726562 C 9.605469 40.550781 9.605469 39.378906 9.609375 38.203125 C 9.4375 38.207031 9.4375 38.207031 9.265625 38.210938 C 9.117188 38.214844 8.964844 38.214844 8.8125 38.21875 C 8.664062 38.222656 8.519531 38.222656 8.367188 38.226562 C 7.96875 38.203125 7.96875 38.203125 7.582031 37.960938 C 7.339844 37.542969 7.257812 37.28125 7.265625 36.796875 C 7.832031 35.726562 8.492188 35.816406 9.585938 35.816406 Z M 9.585938 35.816406 "/>
<path style=" stroke:none;fill-rule:nonzero;fill:rgb(3.529412%,69.411767%,61.176473%);fill-opacity:1;" d="M 52.960938 19.847656 C 53.109375 19.847656 53.257812 19.84375 53.410156 19.839844 C 54.617188 19.847656 54.617188 19.847656 55.054688 20.203125 C 55.496094 20.726562 55.449219 21.15625 55.449219 21.8125 C 55.453125 21.976562 55.453125 21.976562 55.453125 22.148438 C 55.457031 22.515625 55.457031 22.882812 55.457031 23.253906 C 55.457031 23.378906 55.457031 23.503906 55.460938 23.632812 C 55.460938 24.296875 55.464844 24.964844 55.464844 25.628906 C 55.464844 26.316406 55.46875 27 55.472656 27.6875 C 55.476562 28.21875 55.476562 28.746094 55.480469 29.273438 C 55.480469 29.527344 55.480469 29.78125 55.484375 30.03125 C 55.484375 30.386719 55.484375 30.742188 55.484375 31.097656 C 55.484375 31.199219 55.488281 31.304688 55.488281 31.414062 C 55.484375 32.070312 55.390625 32.425781 54.960938 32.929688 C 54.554688 33.132812 54.117188 33.117188 53.671875 33.046875 C 53.347656 32.792969 53.152344 32.59375 52.96875 32.226562 C 52.957031 31.910156 52.953125 31.601562 52.957031 31.285156 C 52.957031 31.1875 52.957031 31.089844 52.957031 30.992188 C 52.957031 30.667969 52.957031 30.347656 52.957031 30.023438 C 52.957031 29.800781 52.957031 29.578125 52.957031 29.355469 C 52.957031 28.769531 52.960938 28.179688 52.960938 27.59375 C 52.960938 26.992188 52.960938 26.394531 52.964844 25.796875 C 52.964844 24.617188 52.964844 23.441406 52.96875 22.265625 C 52.8125 22.273438 52.8125 22.273438 52.65625 22.28125 C 52.453125 22.289062 52.453125 22.289062 52.242188 22.296875 C 52.042969 22.304688 52.042969 22.304688 51.835938 22.3125 C 51.371094 22.257812 51.1875 22.121094 50.859375 21.796875 C 50.726562 21.53125 50.710938 21.355469 50.699219 21.058594 C 50.691406 20.96875 50.6875 20.878906 50.679688 20.789062 C 50.75 20.46875 50.855469 20.257812 51.097656 20.039062 C 51.660156 19.753906 52.347656 19.839844 52.960938 19.847656 Z M 52.960938 19.847656 "/>
<path style=" stroke:none;fill-rule:nonzero;fill:rgb(3.529412%,69.411767%,61.176473%);fill-opacity:1;" d="M 20.601562 19.878906 C 20.828125 19.871094 20.828125 19.871094 21.058594 19.863281 C 21.203125 19.863281 21.347656 19.863281 21.5 19.859375 C 21.632812 19.859375 21.765625 19.855469 21.902344 19.851562 C 22.375 19.941406 22.546875 20.140625 22.851562 20.507812 C 23.050781 20.910156 22.988281 21.371094 22.988281 21.8125 C 22.992188 21.976562 22.992188 21.976562 22.992188 22.148438 C 22.996094 22.515625 22.996094 22.882812 22.996094 23.253906 C 22.996094 23.378906 22.996094 23.503906 23 23.632812 C 23 24.296875 23.003906 24.964844 23.003906 25.628906 C 23.003906 26.316406 23.007812 27 23.011719 27.6875 C 23.015625 28.21875 23.015625 28.746094 23.019531 29.273438 C 23.019531 29.527344 23.019531 29.78125 23.023438 30.03125 C 23.023438 30.386719 23.023438 30.742188 23.023438 31.097656 C 23.023438 31.199219 23.027344 31.304688 23.027344 31.414062 C 23.023438 32.070312 22.929688 32.425781 22.5 32.929688 C 22.09375 33.132812 21.65625 33.117188 21.210938 33.046875 C 20.886719 32.792969 20.691406 32.59375 20.507812 32.226562 C 20.496094 31.910156 20.492188 31.601562 20.496094 31.285156 C 20.496094 31.1875 20.496094 31.089844 20.496094 30.992188 C 20.496094 30.667969 20.496094 30.347656 20.496094 30.023438 C 20.496094 29.800781 20.496094 29.578125 20.496094 29.355469 C 20.496094 28.769531 20.5 28.179688 20.5 27.59375 C 20.5 26.992188 20.5 26.394531 20.503906 25.796875 C 20.503906 24.617188 20.503906 23.441406 20.507812 22.265625 C 20.351562 22.273438 20.351562 22.273438 20.195312 22.28125 C 19.992188 22.289062 19.992188 22.289062 19.78125 22.296875 C 19.582031 22.304688 19.582031 22.304688 19.375 22.3125 C 18.910156 22.257812 18.726562 22.121094 18.398438 21.796875 C 18.210938 21.421875 18.222656 21.03125 18.28125 20.625 C 18.863281 19.710938 19.605469 19.890625 20.601562 19.878906 Z M 20.601562 19.878906 "/>
<path style=" stroke:none;fill-rule:nonzero;fill:rgb(3.529412%,70.588237%,61.56863%);fill-opacity:1;" d="M 32.085938 35.828125 C 32.226562 35.828125 32.367188 35.824219 32.507812 35.824219 C 32.644531 35.820312 32.777344 35.820312 32.917969 35.820312 C 33.039062 35.820312 33.164062 35.820312 33.289062 35.816406 C 33.6875 35.867188 33.898438 35.972656 34.21875 36.210938 C 34.457031 36.570312 34.484375 36.644531 34.484375 37.050781 C 34.488281 37.199219 34.488281 37.199219 34.488281 37.351562 C 34.488281 37.460938 34.488281 37.566406 34.488281 37.679688 C 34.488281 37.792969 34.492188 37.910156 34.492188 38.027344 C 34.496094 38.40625 34.496094 38.785156 34.496094 39.164062 C 34.496094 39.429688 34.5 39.691406 34.5 39.957031 C 34.5 40.507812 34.503906 41.0625 34.503906 41.613281 C 34.503906 42.320312 34.507812 43.03125 34.511719 43.738281 C 34.515625 44.28125 34.519531 44.828125 34.519531 45.371094 C 34.519531 45.632812 34.519531 45.894531 34.523438 46.15625 C 34.523438 46.519531 34.523438 46.886719 34.523438 47.25 C 34.523438 47.359375 34.527344 47.46875 34.527344 47.578125 C 34.523438 48.113281 34.511719 48.328125 34.164062 48.753906 C 34.066406 48.832031 33.96875 48.90625 33.867188 48.984375 C 33.828125 49.023438 33.789062 49.0625 33.75 49.101562 C 33.167969 49.144531 32.804688 49.121094 32.34375 48.75 C 32.03125 48.308594 32.078125 47.820312 32.082031 47.304688 C 32.082031 47.203125 32.082031 47.105469 32.082031 47.003906 C 32.082031 46.679688 32.085938 46.355469 32.085938 46.03125 C 32.085938 45.804688 32.085938 45.582031 32.085938 45.355469 C 32.089844 44.761719 32.089844 44.167969 32.09375 43.578125 C 32.09375 42.972656 32.097656 42.367188 32.097656 41.761719 C 32.101562 40.574219 32.105469 39.390625 32.109375 38.203125 C 31.9375 38.207031 31.9375 38.207031 31.765625 38.214844 C 31.617188 38.214844 31.464844 38.21875 31.3125 38.21875 C 31.089844 38.226562 31.089844 38.226562 30.867188 38.230469 C 30.480469 38.203125 30.34375 38.195312 30.082031 37.925781 C 29.789062 37.46875 29.703125 37.226562 29.765625 36.679688 C 30.367188 35.710938 31.046875 35.835938 32.085938 35.828125 Z M 32.085938 35.828125 "/>
<path style=" stroke:none;fill-rule:nonzero;fill:rgb(3.529412%,70.588237%,61.56863%);fill-opacity:1;" d="M 43.101562 19.871094 C 43.253906 19.867188 43.402344 19.863281 43.554688 19.859375 C 43.769531 19.859375 43.769531 19.859375 43.992188 19.855469 C 44.125 19.855469 44.253906 19.851562 44.390625 19.851562 C 44.867188 19.941406 45.179688 20.121094 45.46875 20.507812 C 45.570312 20.890625 45.5625 21.265625 45.558594 21.664062 C 45.558594 21.777344 45.558594 21.894531 45.5625 22.011719 C 45.5625 22.394531 45.5625 22.777344 45.558594 23.160156 C 45.558594 23.425781 45.558594 23.691406 45.558594 23.957031 C 45.558594 24.511719 45.558594 25.070312 45.554688 25.625 C 45.550781 26.339844 45.550781 27.054688 45.554688 27.769531 C 45.554688 28.316406 45.554688 28.863281 45.550781 29.414062 C 45.550781 29.675781 45.550781 29.941406 45.550781 30.203125 C 45.554688 30.570312 45.550781 30.9375 45.546875 31.304688 C 45.546875 31.414062 45.546875 31.523438 45.550781 31.636719 C 45.539062 32.167969 45.523438 32.390625 45.1875 32.820312 C 44.785156 33.117188 44.566406 33.132812 44.082031 33.105469 C 43.675781 33.011719 43.488281 32.78125 43.242188 32.460938 C 43.058594 32.089844 43.109375 31.691406 43.113281 31.285156 C 43.113281 31.1875 43.113281 31.089844 43.113281 30.992188 C 43.113281 30.667969 43.113281 30.347656 43.113281 30.023438 C 43.113281 29.800781 43.113281 29.578125 43.113281 29.355469 C 43.113281 28.769531 43.117188 28.179688 43.117188 27.59375 C 43.117188 26.992188 43.117188 26.394531 43.121094 25.796875 C 43.121094 24.617188 43.121094 23.441406 43.125 22.265625 C 43.019531 22.269531 42.914062 22.273438 42.808594 22.277344 C 42.667969 22.277344 42.53125 22.28125 42.390625 22.28125 C 42.1875 22.289062 42.1875 22.289062 41.976562 22.292969 C 41.597656 22.265625 41.449219 22.226562 41.164062 21.988281 C 40.875 21.652344 40.789062 21.546875 40.75 21.117188 C 40.785156 20.691406 40.878906 20.492188 41.132812 20.15625 C 41.722656 19.761719 42.410156 19.875 43.101562 19.871094 Z M 43.101562 19.871094 "/>
<path style=" stroke:none;fill-rule:nonzero;fill:rgb(0.392157%,18.039216%,30.588236%);fill-opacity:1;" d="M 10.453125 22.132812 C 11.019531 22.453125 11.363281 22.828125 11.601562 23.4375 C 11.671875 23.898438 11.671875 24.351562 11.667969 24.816406 C 11.667969 25.015625 11.667969 25.015625 11.671875 25.21875 C 11.671875 25.496094 11.671875 25.773438 11.667969 26.050781 C 11.667969 26.476562 11.671875 26.898438 11.675781 27.324219 C 11.675781 27.59375 11.675781 27.863281 11.675781 28.136719 C 11.675781 28.261719 11.679688 28.386719 11.679688 28.515625 C 11.671875 29.308594 11.546875 29.863281 11.015625 30.46875 C 10.519531 30.886719 10.046875 31.015625 9.398438 30.980469 C 8.792969 30.878906 8.421875 30.597656 8.042969 30.109375 C 7.796875 29.664062 7.71875 29.34375 7.710938 28.839844 C 7.707031 28.664062 7.707031 28.664062 7.707031 28.488281 C 7.699219 27.953125 7.695312 27.417969 7.691406 26.886719 C 7.691406 26.605469 7.6875 26.324219 7.683594 26.042969 C 7.675781 25.636719 7.675781 25.230469 7.671875 24.824219 C 7.671875 24.699219 7.667969 24.574219 7.664062 24.445312 C 7.667969 23.652344 7.789062 23.105469 8.320312 22.5 C 8.949219 21.972656 9.679688 21.824219 10.453125 22.132812 Z M 10.453125 22.132812 "/>
<path style=" stroke:none;fill-rule:nonzero;fill:rgb(0.784314%,18.431373%,30.980393%);fill-opacity:1;" d="M 32.878906 22.15625 C 33.464844 22.484375 33.886719 22.910156 34.101562 23.554688 C 34.113281 23.738281 34.117188 23.925781 34.121094 24.109375 C 34.121094 24.222656 34.121094 24.332031 34.125 24.449219 C 34.125 24.570312 34.125 24.691406 34.125 24.816406 C 34.125 24.941406 34.125 25.066406 34.128906 25.195312 C 34.128906 25.460938 34.128906 25.726562 34.128906 25.988281 C 34.128906 26.394531 34.132812 26.796875 34.136719 27.199219 C 34.140625 27.457031 34.140625 27.714844 34.140625 27.972656 C 34.140625 28.09375 34.144531 28.214844 34.144531 28.335938 C 34.140625 29.195312 34.042969 29.773438 33.472656 30.445312 C 32.945312 30.886719 32.476562 31.003906 31.796875 30.988281 C 31.296875 30.894531 30.925781 30.605469 30.585938 30.234375 C 30.140625 29.5625 30.179688 28.90625 30.183594 28.128906 C 30.183594 27.925781 30.183594 27.925781 30.183594 27.71875 C 30.179688 27.433594 30.179688 27.148438 30.183594 26.863281 C 30.183594 26.425781 30.179688 25.992188 30.175781 25.554688 C 30.175781 25.277344 30.175781 25 30.175781 24.722656 C 30.175781 24.59375 30.171875 24.460938 30.171875 24.328125 C 30.179688 23.605469 30.214844 23.167969 30.703125 22.617188 C 31.386719 22.011719 31.996094 21.894531 32.878906 22.15625 Z M 32.878906 22.15625 "/>
<path style=" stroke:none;fill-rule:nonzero;fill:rgb(0.392157%,18.431373%,30.980393%);fill-opacity:1;" d="M 21.480469 37.984375 C 21.925781 38.292969 22.253906 38.652344 22.5 39.140625 C 22.511719 39.332031 22.519531 39.519531 22.519531 39.710938 C 22.523438 39.890625 22.523438 39.890625 22.523438 40.070312 C 22.527344 40.203125 22.527344 40.332031 22.527344 40.464844 C 22.527344 40.597656 22.53125 40.730469 22.53125 40.867188 C 22.53125 41.148438 22.535156 41.429688 22.535156 41.710938 C 22.535156 42.140625 22.542969 42.566406 22.546875 42.996094 C 22.546875 43.269531 22.550781 43.542969 22.550781 43.816406 C 22.550781 43.945312 22.554688 44.074219 22.554688 44.207031 C 22.554688 44.953125 22.484375 45.558594 22.03125 46.171875 C 21.453125 46.644531 20.964844 46.71875 20.222656 46.683594 C 19.695312 46.609375 19.402344 46.390625 19.0625 45.984375 C 18.578125 45.292969 18.546875 44.699219 18.554688 43.867188 C 18.554688 43.675781 18.554688 43.675781 18.554688 43.476562 C 18.554688 43.207031 18.554688 42.933594 18.554688 42.660156 C 18.558594 42.246094 18.554688 41.832031 18.550781 41.417969 C 18.554688 41.152344 18.554688 40.890625 18.554688 40.625 C 18.554688 40.5 18.550781 40.378906 18.550781 40.25 C 18.5625 39.460938 18.703125 38.929688 19.21875 38.320312 C 19.886719 37.699219 20.652344 37.703125 21.480469 37.984375 Z M 21.480469 37.984375 "/>
<path style=" stroke:none;fill-rule:nonzero;fill:rgb(0.392157%,18.431373%,30.980393%);fill-opacity:1;" d="M 33.097656 6.117188 C 33.570312 6.449219 33.878906 6.851562 34.101562 7.382812 C 34.132812 7.660156 34.132812 7.660156 34.136719 7.96875 C 34.140625 8.085938 34.140625 8.203125 34.144531 8.324219 C 34.144531 8.449219 34.144531 8.574219 34.144531 8.703125 C 34.148438 8.898438 34.148438 8.898438 34.148438 9.097656 C 34.148438 9.371094 34.152344 9.644531 34.152344 9.921875 C 34.152344 10.339844 34.160156 10.757812 34.164062 11.175781 C 34.164062 11.441406 34.167969 11.710938 34.167969 11.976562 C 34.167969 12.101562 34.171875 12.226562 34.175781 12.355469 C 34.167969 13.152344 34.035156 13.679688 33.515625 14.296875 C 32.988281 14.777344 32.433594 14.828125 31.742188 14.820312 C 31.171875 14.726562 30.8125 14.394531 30.46875 13.945312 C 30.273438 13.53125 30.203125 13.199219 30.199219 12.746094 C 30.199219 12.625 30.199219 12.503906 30.195312 12.382812 C 30.195312 12.253906 30.195312 12.125 30.195312 11.992188 C 30.195312 11.859375 30.195312 11.726562 30.191406 11.589844 C 30.191406 11.3125 30.191406 11.03125 30.191406 10.75 C 30.191406 10.320312 30.1875 9.894531 30.183594 9.464844 C 30.179688 9.191406 30.179688 8.917969 30.179688 8.648438 C 30.179688 8.519531 30.175781 8.390625 30.175781 8.257812 C 30.179688 7.296875 30.367188 6.9375 31.003906 6.226562 C 31.601562 5.753906 32.421875 5.882812 33.097656 6.117188 Z M 33.097656 6.117188 "/>
<path style=" stroke:none;fill-rule:nonzero;fill:rgb(0.392157%,18.039216%,30.588236%);fill-opacity:1;" d="M 44.648438 5.976562 C 45.265625 6.1875 45.5625 6.515625 45.9375 7.03125 C 46.050781 7.371094 46.070312 7.601562 46.078125 7.957031 C 46.078125 8.074219 46.082031 8.191406 46.082031 8.308594 C 46.089844 8.84375 46.09375 9.378906 46.097656 9.910156 C 46.097656 10.191406 46.101562 10.472656 46.105469 10.753906 C 46.113281 11.160156 46.113281 11.566406 46.117188 11.972656 C 46.117188 12.097656 46.121094 12.222656 46.125 12.351562 C 46.121094 13.152344 45.988281 13.679688 45.46875 14.296875 C 44.953125 14.769531 44.445312 14.804688 43.769531 14.796875 C 43.1875 14.734375 42.875 14.410156 42.503906 13.988281 C 42.21875 13.585938 42.171875 13.378906 42.167969 12.890625 C 42.164062 12.769531 42.164062 12.648438 42.164062 12.519531 C 42.160156 12.386719 42.160156 12.257812 42.160156 12.121094 C 42.160156 11.984375 42.15625 11.847656 42.15625 11.707031 C 42.15625 11.421875 42.152344 11.132812 42.152344 10.84375 C 42.152344 10.402344 42.144531 9.964844 42.140625 9.523438 C 42.140625 9.242188 42.136719 8.964844 42.136719 8.683594 C 42.136719 8.554688 42.132812 8.421875 42.132812 8.285156 C 42.132812 7.554688 42.160156 7.113281 42.65625 6.5625 C 43.324219 5.972656 43.773438 5.902344 44.648438 5.976562 Z M 44.648438 5.976562 "/>
<path style=" stroke:none;fill-rule:nonzero;fill:rgb(3.529412%,69.411767%,60.784316%);fill-opacity:1;" d="M 20.574219 51.605469 C 20.703125 51.605469 20.835938 51.605469 20.96875 51.605469 C 21.703125 51.613281 22.183594 51.644531 22.734375 52.148438 C 23 52.546875 22.996094 52.683594 22.996094 53.152344 C 22.996094 53.285156 22.996094 53.421875 22.996094 53.558594 C 22.992188 53.703125 22.992188 53.847656 22.992188 53.996094 C 22.992188 54.144531 22.992188 54.292969 22.992188 54.441406 C 22.988281 54.835938 22.988281 55.226562 22.984375 55.621094 C 22.984375 56.019531 22.980469 56.421875 22.980469 56.824219 C 22.976562 57.609375 22.972656 58.394531 22.96875 59.179688 C 22.777344 59.152344 22.585938 59.121094 22.398438 59.09375 C 22.292969 59.074219 22.183594 59.058594 22.074219 59.042969 C 21.535156 58.910156 21.023438 58.683594 20.507812 58.476562 C 20.507812 57.046875 20.507812 55.613281 20.507812 54.140625 C 20.042969 54.140625 19.578125 54.140625 19.101562 54.140625 C 18.398438 53.71875 18.398438 53.71875 18.28125 53.320312 C 18.167969 52.546875 18.167969 52.546875 18.414062 52.183594 C 19.070312 51.5625 19.703125 51.582031 20.574219 51.605469 Z M 20.574219 51.605469 "/>
<path style=" stroke:none;fill-rule:nonzero;fill:rgb(0.392157%,18.431373%,30.980393%);fill-opacity:1;" d="M 32.835938 53.976562 C 33.480469 54.257812 33.816406 54.679688 34.101562 55.3125 C 34.171875 55.671875 34.171875 56.011719 34.160156 56.378906 C 34.15625 56.476562 34.15625 56.574219 34.15625 56.671875 C 34.152344 56.980469 34.144531 57.289062 34.136719 57.597656 C 34.136719 57.808594 34.132812 58.019531 34.128906 58.226562 C 34.125 58.742188 34.113281 59.253906 34.101562 59.765625 C 32.808594 60.03125 31.546875 60.023438 30.234375 60 C 30.222656 59.328125 30.214844 58.65625 30.207031 57.984375 C 30.207031 57.757812 30.203125 57.53125 30.199219 57.300781 C 30.191406 56.972656 30.191406 56.644531 30.1875 56.316406 C 30.1875 56.214844 30.183594 56.113281 30.179688 56.007812 C 30.179688 55.363281 30.273438 55.003906 30.703125 54.492188 C 31.378906 53.898438 31.953125 53.730469 32.835938 53.976562 Z M 32.835938 53.976562 "/>
<path style=" stroke:none;fill-rule:nonzero;fill:rgb(1.960784%,59.215689%,36.862746%);fill-opacity:1;" d="M 45.042969 36.050781 C 45.675781 36.324219 46.058594 36.796875 46.40625 37.382812 C 46.628906 38.054688 46.628906 38.761719 46.332031 39.410156 C 45.949219 40.078125 45.386719 40.488281 44.664062 40.730469 C 44.007812 40.867188 43.441406 40.742188 42.859375 40.414062 C 42.304688 40.03125 41.933594 39.550781 41.71875 38.90625 C 41.632812 38.105469 41.707031 37.457031 42.1875 36.796875 C 42.988281 35.957031 43.917969 35.753906 45.042969 36.050781 Z M 45.042969 36.050781 "/>
<path style=" stroke:none;fill-rule:nonzero;fill:rgb(1.960784%,59.215689%,37.254903%);fill-opacity:1;" d="M 21.90625 12.257812 C 22.390625 12.585938 22.707031 13.074219 22.96875 13.59375 C 23.050781 14.460938 23.039062 15.222656 22.5 15.9375 C 21.984375 16.488281 21.457031 16.761719 20.707031 16.792969 C 20.035156 16.773438 19.496094 16.652344 18.984375 16.199219 C 18.390625 15.554688 18.097656 14.972656 18.128906 14.070312 C 18.242188 13.316406 18.660156 12.785156 19.253906 12.328125 C 20.082031 11.753906 21.023438 11.828125 21.90625 12.257812 Z M 21.90625 12.257812 "/>
<path style=" stroke:none;fill-rule:nonzero;fill:rgb(0%,42.745098%,39.607844%);fill-opacity:1;" d="M 21.328125 0 C 21.851562 0.285156 22.175781 0.644531 22.449219 1.171875 C 22.535156 1.769531 22.46875 2.1875 22.179688 2.71875 C 21.828125 3.15625 21.515625 3.453125 20.976562 3.632812 C 20.28125 3.699219 19.777344 3.574219 19.21875 3.164062 C 18.84375 2.761719 18.722656 2.351562 18.699219 1.808594 C 18.722656 1.328125 18.828125 0.988281 19.101562 0.585938 C 19.800781 -0.0429688 20.398438 -0.140625 21.328125 0 Z M 21.328125 0 "/>
<path style=" stroke:none;fill-rule:nonzero;fill:rgb(0%,42.745098%,39.607844%);fill-opacity:1;" d="M 44.648438 49.101562 C 45.269531 49.417969 45.714844 49.839844 45.9375 50.507812 C 45.984375 51.125 45.925781 51.511719 45.585938 52.03125 C 45.152344 52.472656 44.777344 52.710938 44.148438 52.769531 C 43.472656 52.714844 43.070312 52.460938 42.613281 51.964844 C 42.28125 51.46875 42.226562 50.976562 42.304688 50.390625 C 42.828125 49.382812 43.542969 48.96875 44.648438 49.101562 Z M 44.648438 49.101562 "/>
<path style=" stroke:none;fill-rule:nonzero;fill:rgb(0%,42.745098%,39.607844%);fill-opacity:1;" d="M 44.53125 43.125 C 45.148438 43.34375 45.445312 43.664062 45.820312 44.179688 C 46.015625 44.769531 46 45.199219 45.761719 45.777344 C 45.457031 46.253906 45.046875 46.535156 44.53125 46.757812 C 43.890625 46.871094 43.5 46.703125 42.984375 46.34375 C 42.59375 46.023438 42.347656 45.722656 42.261719 45.214844 C 42.226562 44.578125 42.347656 44.203125 42.773438 43.710938 C 43.355469 43.195312 43.75 43.046875 44.53125 43.125 Z M 44.53125 43.125 "/>
<path style=" stroke:none;fill-rule:nonzero;fill:rgb(0%,42.352942%,39.607844%);fill-opacity:1;" d="M 21.347656 6.089844 C 21.820312 6.363281 22.191406 6.621094 22.382812 7.148438 C 22.46875 7.816406 22.417969 8.339844 22.03125 8.90625 C 21.597656 9.34375 21.222656 9.582031 20.601562 9.652344 C 19.914062 9.585938 19.453125 9.273438 18.984375 8.773438 C 18.746094 8.089844 18.75 7.40625 19.050781 6.746094 C 19.683594 6.082031 20.441406 5.691406 21.347656 6.089844 Z M 21.347656 6.089844 "/>
<path style=" stroke:none;fill-rule:nonzero;fill:rgb(0%,42.745098%,39.607844%);fill-opacity:1;" d="M 19.453125 12.1875 C 19.53125 12.226562 19.609375 12.265625 19.6875 12.304688 C 19.679688 12.394531 19.675781 12.484375 19.667969 12.578125 C 19.628906 13.4375 19.6875 14 20.273438 14.648438 C 20.328125 14.707031 20.382812 14.769531 20.4375 14.832031 C 21.078125 15.402344 21.917969 15.339844 22.734375 15.351562 C 22.5 16.011719 22.132812 16.332031 21.527344 16.675781 C 20.820312 16.855469 20.117188 16.828125 19.445312 16.542969 C 18.886719 16.203125 18.507812 15.699219 18.230469 15.117188 C 18.085938 14.347656 18.097656 13.800781 18.472656 13.113281 C 18.742188 12.738281 19.085938 12.460938 19.453125 12.1875 Z M 19.453125 12.1875 "/>
<path style=" stroke:none;fill-rule:nonzero;fill:rgb(0%,42.745098%,39.607844%);fill-opacity:1;" d="M 45.046875 36.058594 C 45.601562 36.3125 45.941406 36.648438 46.289062 37.148438 C 46.289062 37.226562 46.289062 37.304688 46.289062 37.382812 C 46.199219 37.378906 46.109375 37.371094 46.015625 37.367188 C 45.214844 37.339844 44.601562 37.363281 43.945312 37.851562 C 43.390625 38.433594 43.214844 38.902344 43.167969 39.695312 C 43.160156 39.835938 43.152344 39.972656 43.140625 40.113281 C 43.136719 40.21875 43.132812 40.320312 43.125 40.429688 C 42.664062 40.277344 42.4375 40.128906 42.15625 39.734375 C 42.070312 39.613281 42.070312 39.613281 41.980469 39.488281 C 41.636719 38.941406 41.652344 38.359375 41.71875 37.734375 C 41.953125 36.953125 42.417969 36.5 43.105469 36.082031 C 43.695312 35.839844 44.4375 35.882812 45.046875 36.058594 Z M 45.046875 36.058594 "/>
<path style=" stroke:none;fill-rule:nonzero;fill:rgb(1.960784%,58.823532%,37.254903%);fill-opacity:1;" d="M 20.15625 0 C 20.679688 -0.0664062 21.136719 -0.109375 21.605469 0.15625 C 22.074219 0.550781 22.40625 0.898438 22.5 1.523438 C 22.457031 1.917969 22.457031 1.917969 22.382812 2.226562 C 21.820312 2.285156 21.359375 2.300781 20.875 1.984375 C 20.476562 1.65625 20.300781 1.320312 20.15625 0.820312 C 20.132812 0.359375 20.132812 0.359375 20.15625 0 Z M 20.15625 0 "/>
<path style=" stroke:none;fill-rule:nonzero;fill:rgb(1.960784%,58.823532%,37.254903%);fill-opacity:1;" d="M 20.15625 5.976562 C 20.953125 5.90625 21.414062 6.050781 22.03125 6.5625 C 22.429688 7.011719 22.414062 7.417969 22.394531 7.992188 C 22.390625 8.0625 22.386719 8.132812 22.382812 8.203125 C 21.8125 8.261719 21.359375 8.28125 20.875 7.945312 C 20.546875 7.671875 20.3125 7.4375 20.15625 7.03125 C 20.128906 6.675781 20.136719 6.332031 20.15625 5.976562 Z M 20.15625 5.976562 "/>
<path style=" stroke:none;fill-rule:nonzero;fill:rgb(1.960784%,58.431375%,36.862746%);fill-opacity:1;" d="M 45.367188 50.5 C 45.472656 50.5 45.578125 50.503906 45.6875 50.503906 C 45.8125 50.503906 45.8125 50.503906 45.9375 50.507812 C 45.972656 51.125 45.925781 51.511719 45.585938 52.03125 C 45.132812 52.492188 44.761719 52.730469 44.097656 52.742188 C 43.972656 52.738281 43.84375 52.738281 43.710938 52.734375 C 43.640625 52.203125 43.59375 51.75 43.886719 51.28125 C 44.367188 50.730469 44.625 50.492188 45.367188 50.5 Z M 45.367188 50.5 "/>
<path style=" stroke:none;fill-rule:nonzero;fill:rgb(1.960784%,58.431375%,36.862746%);fill-opacity:1;" d="M 45.367188 44.523438 C 45.472656 44.523438 45.578125 44.527344 45.6875 44.527344 C 45.8125 44.527344 45.8125 44.527344 45.9375 44.53125 C 45.992188 45.1875 45.898438 45.664062 45.46875 46.171875 C 45.039062 46.539062 44.636719 46.792969 44.0625 46.792969 C 43.945312 46.78125 43.832031 46.769531 43.710938 46.757812 C 43.640625 46.226562 43.59375 45.773438 43.886719 45.304688 C 44.367188 44.753906 44.625 44.515625 45.367188 44.523438 Z M 45.367188 44.523438 "/>
</g>
</svg>
